<?xml version="1.0" encoding="UTF-8"?>
<svg id="Layer_2" data-name="Layer 2" xmlns="http://www.w3.org/2000/svg" viewBox="-12 -12 884.82 885.23">
  <defs>
    <style>
      .cls-1 {
        stroke: #f8c048;
        stroke-miterlimit: 10;
      }
    </style>
  </defs>
  <path class="cls-1" d="M651.4,649.4s-24.25,21.56-63.99,48.01c-26.61,17.71-52.7,26.9-66.79,30.77-80,22.02-118.17,11.4-142.2,7.27-58.96-10.13-99.27-33.68-110.01-40.2-11.17-6.78-44.01-27.72-76.01-65.76-28.24-33.56-42.05-64.05-50.02-81.99-20-45.04-19.85-77-20.02-89l96-.02c-53.35-86.32-106.7-172.64-160.06-258.97-18.85,33.69-42.98,87.01-54.96,170.01-2.92,25.45-7.39,83.54,9.03,155,7.38,32.09,24.05,101.2,79.04,171.98,14.43,18.58,62.97,77.77,149.03,119.97,77.85,38.17,146.87,43.04,173.01,43.96,73.12,2.57,126.91-13.09,168.99-29.04,65.99-25.01,133.93-75.95,135.98-83.03l-67.02-98.99Z"/>
  <path class="cls-1" d="M209.46,211.78s24.26-21.56,64-48c26.62-17.71,52.71-26.89,66.8-30.76,80-22,118.18-11.37,142.2-7.24,58.95,10.14,99.27,33.7,110,40.22,11.17,6.78,44,27.73,76,65.78,28.23,33.56,42.04,64.06,50,82,19.99,45.05,19.83,77.01,20,89h-96c53.33,86.33,106.67,172.67,160,259,18.86-33.69,43-87,55-170,2.92-25.45,7.41-83.54-9-155-7.37-32.09-24.03-101.21-79-172-14.43-18.58-62.95-77.79-149-120C542.62,6.59,473.6,1.71,447.46.78c-73.12-2.58-126.91,13.06-169,29-66,25-133.95,75.92-136,83l67,99Z"/>
</svg>
